<svg xmlns="http://www.w3.org/2000/svg" width="24" height="24" viewBox="0 0 24 24">
    <defs>
        <linearGradient id="iih3cqbt5a" x1="50%" x2="50%" y1="110.998%" y2="208.016%">
            <stop offset="0%" stop-color="#31b1ed"/>
            <stop offset="100%" stop-color="#17526E"/>
        </linearGradient>
        <linearGradient id="pgwsrv95ob" x1="50%" x2="50%" y1="110.998%" y2="208.016%">
            <stop offset="0%" stop-color="#31b1ed"/>
            <stop offset="100%" stop-color="#17526E"/>
        </linearGradient>
        <linearGradient id="tf21mu2f3c" x1="50%" x2="50%" y1="110.998%" y2="208.016%">
            <stop offset="0%" stop-color="#31b1ed"/>
            <stop offset="100%" stop-color="#17526E"/>
        </linearGradient>
        <linearGradient id="hbohviyvxd" x1="50%" x2="50%" y1="110.998%" y2="208.016%">
            <stop offset="0%" stop-color="#31b1ed"/>
            <stop offset="100%" stop-color="#17526E"/>
        </linearGradient>
        <linearGradient id="a64q5t2w4e" x1="50%" x2="50%" y1="110.998%" y2="208.016%">
            <stop offset="0%" stop-color="#31b1ed"/>
            <stop offset="100%" stop-color="#17526E"/>
        </linearGradient>
        <linearGradient id="tz6gg3cj7f" x1="50%" x2="50%" y1="110.998%" y2="208.016%">
            <stop offset="0%" stop-color="#31b1ed"/>
            <stop offset="100%" stop-color="#17526E"/>
        </linearGradient>
        <linearGradient id="xok6bnpqig" x1="50%" x2="50%" y1="110.998%" y2="208.016%">
            <stop offset="0%" stop-color="#31b1ed"/>
            <stop offset="100%" stop-color="#17526E"/>
        </linearGradient>
        <linearGradient id="eu16ocusyh" x1="50%" x2="50%" y1="110.998%" y2="208.016%">
            <stop offset="0%" stop-color="#31b1ed"/>
            <stop offset="100%" stop-color="#17526E"/>
        </linearGradient>
        <linearGradient id="v4hsfv3iii" x1="50%" x2="50%" y1="110.998%" y2="208.016%">
            <stop offset="0%" stop-color="#31b1ed"/>
            <stop offset="100%" stop-color="#17526E"/>
        </linearGradient>
        <linearGradient id="bju29fwimj" x1="50%" x2="50%" y1="110.998%" y2="208.016%">
            <stop offset="0%" stop-color="#31b1ed"/>
            <stop offset="100%" stop-color="#17526E"/>
        </linearGradient>
    </defs>
    <g fill="none" fill-rule="evenodd">
        <path d="M19.77 14.719L23.997 13.383 23.997 13.383 21.029 6.775z" transform="translate(0 1)"/>
        <path fill="url(#iih3cqbt5a)" d="M19.77 14.719L23.997 13.383 23.997 13.383 21.029 6.775z" transform="translate(0 1)"/>
        <path d="M19.658 15.124l-2.78 3.617-.004-.003c-.004.006-.006.015-.011.02l-4.17 4.184 5.525-2.095 5.53-7.015-4.09 1.292z" transform="translate(0 1)"/>
        <path fill="url(#pgwsrv95ob)" d="M19.658 15.124l-2.78 3.617-.004-.003c-.004.006-.006.015-.011.02l-4.17 4.184 5.525-2.095 5.53-7.015-4.09 1.292z" transform="translate(0 1)"/>
        <path d="M18.655 0.06L17.07 1.902 20.881 5.87 22.165 1.937z" transform="translate(0 1)"/>
        <path fill="url(#tf21mu2f3c)" d="M18.655 0.06L17.07 1.902 20.881 5.87 22.165 1.937z" transform="translate(0 1)"/>
        <path d="M12.167 5.401v4.322c1.996-.029 3.988-.458 5.865-1.296.277-.123.56.168.552.586-.014.817-.027 1.227-.064 2.048-.012.264-.151.499-.344.578-.893.367-1.807.647-2.734.85l.4 1.338.99 4.412 2.572-3.345 1.37-8.64-3.956-4.119-4.65 3.266z" transform="translate(0 1)"/>
        <path fill="url(#hbohviyvxd)" d="M12.167 5.401v4.322c1.996-.029 3.988-.458 5.865-1.296.277-.123.56.168.552.586-.014.817-.027 1.227-.064 2.048-.012.264-.151.499-.344.578-.893.367-1.807.647-2.734.85l.4 1.338.99 4.412 2.572-3.345 1.37-8.64-3.956-4.119-4.65 3.266z" transform="translate(0 1)"/>
        <path d="M8.808 12.565l-.33 1.36-1.044 4.646 4.4 4.41V19.73L9.802 18.31l-.36-1.656L12 16.062l2.556.592-.36 1.656-2.029 1.42v3.251l4.397-4.41-1.042-4.649-.408-1.36c-2.083.413-4.222.414-6.306.003" transform="translate(0 1)"/>
        <path fill="url(#a64q5t2w4e)" d="M8.808 12.565l-.33 1.36-1.044 4.646 4.4 4.41V19.73L9.802 18.31l-.36-1.656L12 16.062l2.556.592-.36 1.656-2.029 1.42v3.251l4.397-4.41-1.042-4.649-.408-1.36c-2.083.413-4.222.414-6.306.003" transform="translate(0 1)"/>
        <path d="M7.718 2.086L12 5.093 16.283 2.086z" transform="translate(0 1)"/>
        <path fill="url(#tz6gg3cj7f)" d="M7.718 2.086L12 5.093 16.283 2.086z" transform="translate(0 1)"/>
        <path d="M3.224 6.254l1.37 8.64 2.571 3.346.99-4.4.326-1.348c-.93-.203-1.849-.485-2.745-.853-.193-.08-.332-.314-.344-.578-.037-.821-.05-1.231-.065-2.048-.007-.418.275-.709.553-.586 1.904.85 3.928 1.281 5.954 1.298V5.401L7.183 2.135l-3.959 4.12z" transform="translate(0 1)"/>
        <path fill="url(#xok6bnpqig)" d="M3.224 6.254l1.37 8.64 2.571 3.346.99-4.4.326-1.348c-.93-.203-1.849-.485-2.745-.853-.193-.08-.332-.314-.344-.578-.037-.821-.05-1.231-.065-2.048-.007-.418.275-.709.553-.586 1.904.85 3.928 1.281 5.954 1.298V5.401L7.183 2.135l-3.959 4.12z" transform="translate(0 1)"/>
        <path d="M5.53 20.847l5.795 2.112-4.19-4.2c-.006-.006-.007-.014-.012-.02l-.003.002-2.78-3.617-4.11-1.298 5.3 7.021z" transform="translate(0 1)"/>
        <path fill="url(#eu16ocusyh)" d="M5.53 20.847l5.795 2.112-4.19-4.2c-.006-.006-.007-.014-.012-.02l-.003.002-2.78-3.617-4.11-1.298 5.3 7.021z" transform="translate(0 1)"/>
        <path d="M5.343 0.06L1.833 1.937 3.117 5.87 6.93 1.902z" transform="translate(0 1)"/>
        <path fill="url(#v4hsfv3iii)" d="M5.343 0.06L1.833 1.937 3.117 5.87 6.93 1.902z" transform="translate(0 1)"/>
        <path d="M0 13.383L4.227 14.719 2.968 6.775z" transform="translate(0 1)"/>
        <path fill="url(#bju29fwimj)" d="M0 13.383L4.227 14.719 2.968 6.775z" transform="translate(0 1)"/>
    </g>
</svg>
