<svg xmlns="http://www.w3.org/2000/svg" width="24" height="24" viewBox="0 0 24 24">
    <g fill="none" fill-rule="evenodd" opacity=".498">
        <g fill="#768FBF" fill-rule="nonzero">
            <g>
                <g>
                    <path d="M23.552 2.138L17.195 8.47l6.354 6.328c.035-.439.02-12.453.003-12.66zM21.262.018H2.308c-.616 0-1.184.243-1.598.64l10.531 10.49c.3.3.787.3 1.087.002L22.857.662c-.417-.403-.981-.644-1.595-.644zM.019 2.139C0 2.35-.014 14.363.02 14.8l6.366-6.319L.02 2.14z" transform="translate(-1058 -4329) translate(1058 4329) translate(0 4)"/>
                    <path d="M16.106 9.555l-2.692 2.682c-.898.897-2.356.901-3.258-.001l-2.68-2.67-6.76 6.712c.414.397.974.645 1.592.645h18.954c.62 0 1.18-.248 1.594-.646l-6.75-6.722z" transform="translate(-1058 -4329) translate(1058 4329) translate(0 4)"/>
                </g>
            </g>
        </g>
    </g>
</svg>
