<svg xmlns="http://www.w3.org/2000/svg" width="24" height="24" viewBox="0 0 24 24">
    <defs>
        <filter id="d40dpy55ra">
            <feColorMatrix in="SourceGraphic" values="0 0 0 0 0.462745 0 0 0 0 0.560784 0 0 0 0 0.749020 0 0 0 1.000000 0"/>
        </filter>
    </defs>
    <g fill="none" fill-rule="evenodd" opacity=".498">
        <g>
            <g filter="url(#d40dpy55ra)" transform="translate(-1058 -4261) translate(1058 4261)">
                <g fill="#768FBF" fill-rule="nonzero">
                    <path d="M17.361 12.593H.694c-.383 0-.694.31-.694.694v9.722c0 .384.311.695.694.695h16.667c.383 0 .695-.311.695-.695v-9.722c0-.383-.312-.694-.695-.694zm-8.333 5.555c-.384 0-.695-.311-.695-.694 0-.384.311-.695.695-.695.383 0 .694.311.694.695 0 .383-.31.694-.694.694z" transform="translate(3)"/>
                    <g>
                        <path d="M3.245 11.204H.265c-.05-.18-.092-.363-.128-.551C.863 9.51 1.8 8.599 2.863 7.976c-.056.384-.084.766-.084 1.144 0 .779.123 1.5.467 2.084zM8.333 9.12c0 1.32-.34 2.084-2.083 2.084S4.167 10.44 4.167 9.12c0-.596.086-1.207.256-1.82.59-.173 1.203-.263 1.827-.263.625 0 1.237.09 1.826.26.171.614.257 1.226.257 1.823z" transform="translate(3) translate(2.778)"/>
                        <path d="M.02 8.523C.257 4.775 2.684 0 6.25 0c3.558 0 5.991 4.764 6.23 8.522-1.64-1.803-3.84-2.874-6.23-2.874-2.35 0-4.573 1.053-6.23 2.875z" transform="translate(3) translate(2.778)"/>
                        <path d="M12.363 10.65c-.035.189-.078.374-.128.554h-2.98c.343-.583.467-1.304.467-2.084 0-.38-.028-.764-.085-1.15 1.067.624 2.003 1.538 2.726 2.68z" transform="translate(3) translate(2.778)"/>
                    </g>
                </g>
            </g>
        </g>
    </g>
</svg>
