<svg xmlns="http://www.w3.org/2000/svg" width="24" height="24" viewBox="0 0 24 24">
    <g fill="none" fill-rule="evenodd" opacity=".498">
        <g fill="#768FBF" fill-rule="nonzero">
            <g>
                <path d="M23.501 17.834l-8.478-15.16c-1.362-2.23-4.682-2.234-6.046 0L.499 17.834C-.893 20.114.792 23 3.522 23h16.956c2.727 0 4.416-2.884 3.023-5.166zM11.5 20c-.827 0-1.5-.449-1.5-1 0-.551.673-1 1.5-1s1.5.449 1.5 1c0 .551-.673 1-1.5 1zm1.5-5.429C13 15.36 12.327 16 11.5 16s-1.5-.641-1.5-1.429V7.43C10 6.64 10.673 6 11.5 6s1.5.641 1.5 1.429v7.142z" transform="translate(-1058 -4533) translate(1058 4533)"/>
            </g>
        </g>
    </g>
</svg>
